<?xml version="1.0" encoding="utf-8"?>
<!-- Generator: Adobe Illustrator 22.1.0, SVG Export Plug-In . SVG Version: 6.00 Build 0)  -->
<svg version="1.1" id="Layer_1" xmlns="http://www.w3.org/2000/svg" xmlns:xlink="http://www.w3.org/1999/xlink" x="0px" y="0px"
	 viewBox="0 0 65 65" style="enable-background:new 0 0 65 65;" xml:space="preserve">
<style type="text/css">
	.st0{fill:#FFFFFF;}
</style>
<g>
	<path class="st0" d="M28.4,63.5c-1.8-0.3-3.5-0.5-5.3-1C12.5,59.8,4.4,50.8,3,39.9c-1.4-10.3,2-18.8,9.9-25.6
		c0.4-0.3,0.8-0.6,1.3-0.9c0.1,1.3,0.1,2.5,0.3,3.6c0.2,1.3,0.6,2.6,1.1,3.8c0.2,0.6,0.1,1-0.3,1.5c-5.3,6.3-6.7,13.3-3.7,21
		c2.8,7,8.1,11.2,15.4,12.4c10.7,1.7,20.3-4.9,22.8-15.4c1.4-6.2,0-11.8-3.9-16.8c-0.6-0.7-0.6-1.3-0.3-2.2c0.6-1.9,0.9-3.9,1.4-5.9
		c0.1-0.3,0.1-0.6,0.1-1.1c0.8,0.7,1.5,1.2,2.1,1.8c13.1,12.4,10.8,34-4.6,43.4c-3.7,2.2-7.6,3.5-11.9,3.9c-0.3,0-0.5,0.1-0.8,0.2
		C30.7,63.5,29.6,63.5,28.4,63.5z"/>
	<path class="st0" d="M31.7,1.9c2.3,0.4,4.5,1.1,6.5,2.6C44.4,9.2,44.8,19,38.8,24c-1.1,0.9-2.4,1.7-3.7,2.3
		C34.2,26.7,34,27.1,34,28c0,7,0,14,0,21c0,1.5,0,1.5-1.5,1.5c-1.4,0-2.8,0-4.2,0c-1.4,0-1.4,0-1.4-1.4c0-0.7,0-1.3,0-2
		c0-1.3,0-1.3-1.3-1.3c-1.2,0-2.4,0-3.6,0c-0.7,0-1-0.2-1-1c0-1.5,0-3.1,0-4.6c0-0.6,0.2-0.9,0.9-0.8c1.3,0,2.7,0,4,0
		c0.8,0,1.1-0.3,1-1.1c0-3.5,0-7,0-10.6c0-0.7-0.3-1-1-1.3c-4.8-2.1-7.8-5.7-8.1-11c-0.3-5.2,1.9-9.3,6.4-11.9
		c1.5-0.9,3.4-1.2,5-1.7C30.1,1.9,30.9,1.9,31.7,1.9z M30.4,20.7c3.3,0.1,6.1-2.6,6.2-5.9c0.1-3.3-2.6-6.1-5.9-6.1
		c-3.2-0.1-6,2.6-6.1,5.9C24.4,17.7,27.1,20.6,30.4,20.7z"/>
</g>
</svg>
