<?xml version="1.0" encoding="utf-8"?>
<!-- Generator: Adobe Illustrator 22.1.0, SVG Export Plug-In . SVG Version: 6.00 Build 0)  -->
<svg version="1.1" id="Layer_1" xmlns="http://www.w3.org/2000/svg" xmlns:xlink="http://www.w3.org/1999/xlink" x="0px" y="0px"
	 viewBox="0 0 65 65" style="enable-background:new 0 0 65 65;" xml:space="preserve">
<style type="text/css">
	.st0{fill:none;stroke:#FFFFFF;stroke-width:2;stroke-miterlimit:10;}
</style>
<g>
	<path class="st0" d="M28.4,25.4c-2.3,0-4.1-0.1-6-0.3c-3.2-0.3-6.4-0.9-9.5-2c-1.8-0.6-3.5-1.4-5.1-2.4c-1.3-0.8-2.4-1.8-3.2-3.1
		c-0.7-1.1-1.1-2.2-0.9-3.5c0.1-1,0.5-1.9,1.1-2.8c0.9-1.3,2.1-2.2,3.4-3c2.2-1.3,4.5-2.2,7-2.9c1.7-0.5,3.4-0.8,5.1-1.1
		c3-0.4,6-0.6,9.1-0.5c1.4,0.1,2.8,0.1,4.3,0.3c3.4,0.3,6.7,1,9.8,2.2c1.7,0.6,3.4,1.4,5,2.5c1.1,0.8,2.2,1.7,2.9,2.9
		c0.6,1,1,2,1,3.2c-0.1,1.2-0.5,2.2-1.2,3.1c-0.9,1.2-2,2.1-3.3,2.9c-1.9,1.2-4,2-6.1,2.7c-1.8,0.6-3.7,1-5.6,1.3
		c-1.5,0.2-3,0.4-4.6,0.5C30.2,25.3,29.1,25.3,28.4,25.4z"/>
	<path class="st0" d="M41.4,41.5c0-0.1,0-0.2,0-0.3c0-2.9,0-5.8,0-8.7c0-1.1,0.7-2,1.8-2.3c0.1,0,0.3,0,0.4,0c1.5,0,3,0,4.5,0
		c1.1,0,2,0.7,2.2,1.8c0,0.2,0,0.4,0,0.6c0,2.9,0,5.7,0,8.6c0,0.1,0,0.2,0,0.3c0.1,0,0.2,0,0.2,0c2.9,0,5.8,0,8.7,0
		c1.1,0,2,0.7,2.2,1.8c0,0.2,0.1,0.4,0.1,0.5c0,1.4,0,2.9,0,4.3c0,1.3-1,2.3-2.3,2.3c-2.9,0-5.8,0-8.6,0c-0.1,0-0.2,0-0.3,0
		c0,0.1,0,0.2,0,0.3c0,2.9,0,5.8,0,8.7c0,1.1-0.7,2-1.8,2.2c-0.2,0-0.4,0.1-0.5,0.1c-1.5,0-2.9,0-4.4,0c-1.3,0-2.3-1-2.3-2.3
		c0-2.9,0-5.8,0-8.7c0-0.1,0-0.2,0-0.3c-0.1,0-0.2,0-0.2,0c-2.9,0-5.8,0-8.7,0c-1.1,0-2-0.7-2.3-1.8c0-0.2-0.1-0.3-0.1-0.5
		c0-1.5,0-2.9,0-4.4c0-1.3,1-2.3,2.3-2.3c2.9,0,5.8,0,8.7,0C41.2,41.5,41.3,41.5,41.4,41.5z"/>
	<path class="st0" d="M36.9,35.8c-0.8,0.1-1.6,0.3-2.5,0.4c-1,0.1-2,0.2-3,0.3c-1.6,0.1-3.3,0.2-4.9,0.1c-1.4-0.1-2.8-0.1-4.2-0.3
		c-3.5-0.4-7-1.1-10.3-2.4c-1.8-0.7-3.5-1.5-5.1-2.7c-1.1-0.9-2.1-1.9-2.7-3.2c-0.3-0.7-0.5-1.5-0.5-2.3c0-2.6,0-5.2,0-7.7
		c0,0,0,0,0,0c0.2,1.8,1.2,3.1,2.4,4.3c1.3,1.2,2.8,2,4.4,2.8c2.7,1.2,5.5,2,8.4,2.5c1.6,0.3,3.2,0.5,4.8,0.6
		c2.1,0.2,4.1,0.2,6.2,0.1c1.7-0.1,3.4-0.2,5.1-0.4c1.6-0.2,3.2-0.5,4.8-0.9c0,0,0.1,0,0,0c-0.4,0.4-0.8,0.7-1.2,1.1
		c-1.1,1.2-1.7,2.7-1.7,4.4c0,1,0,2.1,0,3.2C36.9,35.7,36.9,35.7,36.9,35.8z"/>
	<path class="st0" d="M3.6,40.4c0.2,1.8,1.2,3.1,2.5,4.3c1.5,1.3,3.1,2.2,4.9,3c2.3,1,4.7,1.7,7.2,2.1c1.5,0.3,3.1,0.5,4.6,0.7
		c1,0.1,2.1,0.1,3.1,0.2c0.1,0,0.2,0,0.3,0.2c1,2.2,2.7,3.5,5.1,4c0.4,0.1,0.7,0.1,1.1,0.1c1.4,0,2.8,0,4.2,0c0.1,0,0.1,0,0.2,0
		c0,1.1,0,2.2,0,3.3c-0.4,0.1-0.7,0.1-1.1,0.2c-1.1,0.1-2.2,0.3-3.4,0.4c-2,0.2-4,0.3-6,0.2c-1.3-0.1-2.5-0.1-3.8-0.2
		c-3.8-0.4-7.4-1.1-10.9-2.5c-1.8-0.7-3.6-1.6-5.1-2.9c-1-0.8-1.8-1.7-2.4-2.9c-0.4-0.7-0.6-1.5-0.6-2.3C3.6,45.6,3.6,43,3.6,40.4z"
		/>
	<path class="st0" d="M3.6,29.2c0.2,1.7,1.2,3,2.4,4.2c1.3,1.2,2.9,2.1,4.5,2.9c2.3,1,4.7,1.8,7.1,2.3c1.6,0.3,3.2,0.6,4.8,0.7
		c1.5,0.1,3.1,0.2,4.6,0.3c0.1,0,0.1,0,0.2,0c-0.1,0.1-0.2,0.2-0.3,0.3c-0.9,1.2-1.3,2.5-1.3,4c0,1.2,0,2.4,0,3.6c0,0.1,0,0.1,0,0.2
		c-0.5,0-1,0-1.5-0.1c-1.3-0.1-2.7-0.3-4-0.4c-2.2-0.3-4.3-0.8-6.3-1.4c-1.9-0.6-3.8-1.4-5.5-2.4c-1.3-0.8-2.4-1.7-3.4-2.8
		c-0.7-0.9-1.2-1.9-1.3-3c0-0.2,0-0.4,0-0.6C3.6,34.4,3.6,31.8,3.6,29.2z"/>
	<path class="st0" d="M52.2,18c0,0.1,0,0.1,0,0.2c0,2.5,0,5,0,7.5c0,0.4-0.1,0.8-0.2,1.3c-0.2-0.1-0.3-0.2-0.4-0.2
		c-1.1-0.7-2.3-1-3.6-1c-1.4,0-2.8,0-4.3,0c-0.1,0-0.1,0-0.2,0c0,0,0,0,0,0c0.4-0.2,0.8-0.3,1.3-0.5c1.7-0.7,3.3-1.6,4.7-2.8
		c1-0.8,1.8-1.8,2.3-3C52,19,52.1,18.5,52.2,18C52.2,18,52.2,18,52.2,18z"/>
</g>
</svg>
