<?xml version="1.0" encoding="utf-8"?>
<!-- Generator: Adobe Illustrator 22.1.0, SVG Export Plug-In . SVG Version: 6.00 Build 0)  -->
<svg version="1.1" id="Layer_1" xmlns="http://www.w3.org/2000/svg" xmlns:xlink="http://www.w3.org/1999/xlink" x="0px" y="0px"
	 viewBox="0 0 65 65" style="enable-background:new 0 0 65 65;" xml:space="preserve">
<style type="text/css">
	.st0{fill:#FFFFFF;}
</style>
<g>
	<path class="st0" d="M61.7,32.7c-0.2,1.2-0.3,2.4-0.5,3.7c-0.1,0.6-0.2,1.1-0.4,1.7c-1.6,0-3.1,0-4.7,0c1.8-6.3,1.3-12.4-2-18.1
		c-2.5-4.5-6.2-7.8-10.9-9.8C34.3,6.3,24.4,8.5,18,15c1.5,1.5,3,3,4.6,4.6c-3.8,0-7.6,0-11.3,0c0-3.8,0-7.5,0-11.2
		c1.1,1.1,2.2,2.3,3.3,3.4c0.9-0.8,1.6-1.4,2.4-2.1c4.2-3.4,9-5.4,14.4-6c0.4,0,0.8-0.1,1.2-0.1c1.1,0,2.2,0,3.2,0
		c0.4,0,0.8,0.1,1.2,0.1c5.9,0.7,11.1,2.9,15.5,6.9c4.7,4.2,7.7,9.5,8.8,15.8c0.2,1,0.3,2.1,0.4,3.1C61.7,30.6,61.7,31.6,61.7,32.7z
		"/>
	<path class="st0" d="M50.3,47.3c-1.5-1.5-3-3.1-4.6-4.6c3.8,0,7.5,0,11.3,0c0,3.8,0,7.5,0,11.3c-1.2-1.2-2.3-2.3-3.4-3.5
		c-5.8,5.6-12.7,8.4-20.7,8.1c-5.6-0.2-10.6-2.1-15.1-5.4c-9-6.6-13-18-10.2-28.9c1.5,0,3.1,0,4.7,0c-2,7-1.1,13.6,2.9,19.7
		c2.6,3.8,6.1,6.7,10.4,8.4C34.3,55.9,43.9,53.8,50.3,47.3z"/>
	<path class="st0" d="M38.7,35.7c-3.1,0-6.1,0-9.1,0c0-3,0-6.1,0-9.1c3,0,6.1,0,9.1,0C38.7,29.6,38.7,32.7,38.7,35.7z"/>
	<path class="st0" d="M41.1,35.8c0-3.1,0-6.1,0-9.2c0.3,0,0.7,0,1,0c1.5,0,3,0,4.5,0c0.4,0,0.6,0.1,0.7,0.5c0.8,2.8,0.8,5.5,0,8.2
		c-0.1,0.2-0.3,0.4-0.4,0.4C44.9,35.8,43,35.8,41.1,35.8z"/>
	<path class="st0" d="M38.7,38.1c0,1.4,0,2.8,0,4.2c0,0.3,0,0.6,0,1c0,0.9,0,0.9-0.9,1.2c-2.6,0.7-5.3,0.7-7.9-0.2
		c-0.2-0.1-0.4-0.3-0.4-0.4c0-1.8,0-3.7,0-5.5c0-0.1,0-0.1,0-0.2C32.6,38.1,35.6,38.1,38.7,38.1z"/>
	<path class="st0" d="M38.7,24.3c-3.1,0-6.1,0-9.1,0c0-0.2,0-0.3,0-0.5c0-1.7,0-3.4,0-5.1c0-0.4,0.1-0.5,0.5-0.6
		c2.7-0.9,5.5-0.9,8.2,0c0.4,0.1,0.5,0.2,0.5,0.7c0,1.7,0,3.4,0,5.1C38.7,23.9,38.7,24.1,38.7,24.3z"/>
	<path class="st0" d="M27.2,35.8c-1.3,0-2.6,0-3.8,0c-0.4,0-0.9,0-1.3,0c-1,0-0.8,0.2-1.1-0.9c-0.8-2.7-0.7-5.3,0.2-8
		c0-0.1,0.3-0.3,0.4-0.3c1.8,0,3.7,0,5.5,0c0.1,0,0.1,0,0.2,0C27.2,29.6,27.2,32.7,27.2,35.8z"/>
	<path class="st0" d="M27.3,19.3c0,1.7,0,3.3,0,5c-1.6,0-3.2,0-5,0C23.5,22.1,25.1,20.5,27.3,19.3z"/>
	<path class="st0" d="M41.1,19.3c2.1,1.2,3.7,2.9,4.9,5c-1.7,0-3.3,0-4.9,0C41.1,22.6,41.1,21,41.1,19.3z"/>
	<path class="st0" d="M27.3,38.1c0,1.7,0,3.3,0,5c-2.1-1.2-3.7-2.9-5-5C24,38.1,25.6,38.1,27.3,38.1z"/>
	<path class="st0" d="M41.1,43c0-1.7,0-3.3,0-5c1.6,0,3.3,0,5,0C44.8,40.2,43.2,41.8,41.1,43z"/>
</g>
</svg>
