<?xml version="1.0" encoding="utf-8"?>
<!-- Generator: Adobe Illustrator 22.1.0, SVG Export Plug-In . SVG Version: 6.00 Build 0)  -->
<svg version="1.1" id="Layer_1" xmlns="http://www.w3.org/2000/svg" xmlns:xlink="http://www.w3.org/1999/xlink" x="0px" y="0px"
	 viewBox="0 0 65 65" style="enable-background:new 0 0 65 65;" xml:space="preserve">
<style type="text/css">
	.st0{fill:#C845B5;}
	.st1{fill:#FFFFFF;}
	.st2{fill:#1C2340;}
	.st3{font-family:'Lato-Black';}
	.st4{font-size:9.5899px;}
</style>
<g>
	<g>
		<path class="st0" d="M47,32.1c0,8-6.3,14.3-14.2,14.3c-7.8,0-14.3-6.4-14.2-14.3c0-7.9,6.4-14.3,14.3-14.3
			C40.7,17.8,47,24.2,47,32.1z M32.2,24.1c-2.6,0.8-3.7,2-3.9,4c-0.1,1.9,0.9,3.2,3.2,4.2c0.8,0.4,1.7,0.6,2.3,1.1
			c0.6,0.5,1.3,1.2,1.4,2c0.3,1.7-1,3-3,2.8c-1.2-0.1-2.4-0.5-3.6-0.8c-0.1,0.4-0.3,0.9-0.6,1.6c1.3,0.4,2.6,0.8,3.9,1.2
			c0,0.7,0,1.4,0,2.2c0.6,0,1.1,0,1.6,0c0-0.6-0.1-1.2,0-1.7c0.1-0.4,0.4-0.9,0.7-1c1.9-0.7,3.2-1.9,3.3-4.1
			c0.1-2.3-1.2-3.6-3.1-4.5c-0.7-0.3-1.5-0.6-2.2-1c-1.3-0.7-1.9-1.7-1.6-2.8c0.3-1.1,1.2-1.7,2.8-1.6c1,0.1,2,0.4,3.1,0.6
			c0.2-0.4,0.3-0.9,0.6-1.6C36,24.6,35,24.3,33.8,24c0-0.7,0-1.5,0-2.3c-0.6,0-1.1,0-1.6,0C32.2,22.6,32.2,23.3,32.2,24.1z"/>
		<path class="st1" d="M26.6,49.4C22.8,53.2,19,57,15.3,60.7C11.7,57,7.8,53.2,4,49.4c1.9,0,3.8,0,5.9,0c0-9.6,0-19.1,0-28.7
			c3.6,0,7.1,0,10.8,0c-0.3,0.7-0.4,1.3-0.7,1.7c-4.5,6.2-4.4,13.5,0.3,19.5c0.3,0.4,0.4,0.9,0.4,1.4c0,2,0,4,0,6.1
			C22.8,49.4,24.7,49.4,26.6,49.4z"/>
		<path class="st1" d="M45,14.8c-2,0-4,0-5.8,0C43,11,46.8,7.3,50.4,3.7c3.6,3.5,7.4,7.1,11.2,10.8c0,0.1,0,0.2-0.1,0.3
			c-1.4,0-2.9,0-4.3,0c-1.6,0-1.6,0-1.6,1.6c0,8.6,0,17.1,0,25.7c0,0.5,0,1,0,1.5c-3.6,0-7,0-10.8,0c0.3-0.5,0.4-0.9,0.6-1.2
			c5.2-6.4,5.2-14.2,0-20.5c-0.3-0.3-0.5-0.9-0.5-1.3C45,18.6,45,16.8,45,14.8z"/>
	</g>
	<circle class="st0" cx="32.8" cy="32.1" r="12.2"/>
	<text transform="matrix(1 0 0 1 22.7412 36.3273)" class="st2 st3 st4">XRK</text>
</g>
</svg>
