<?xml version="1.0" encoding="utf-8"?>
<!-- Generator: Adobe Illustrator 22.1.0, SVG Export Plug-In . SVG Version: 6.00 Build 0)  -->
<svg version="1.1" id="Layer_1" xmlns="http://www.w3.org/2000/svg" xmlns:xlink="http://www.w3.org/1999/xlink" x="0px" y="0px"
	 viewBox="0 0 65 65" style="enable-background:new 0 0 65 65;" xml:space="preserve">
<style type="text/css">
	.st0{fill:none;stroke:#FFFFFF;stroke-width:2;stroke-miterlimit:10;}
</style>
<g>
	<path class="st0" d="M10.5,13.1c14.4,0,28.8,0,43.2,0c0,0.1,0,0.2,0,0.2c0,8.1,0,16.3,0,24.4c0,0.2,0,0.3,0.1,0.4
		c1.6,2.2,3.2,4.3,4.8,6.5c1.7,2.3,0.9,5.7-1.6,7.1c-0.8,0.4-1.6,0.6-2.5,0.6c-15,0-30,0-45,0c-2.5,0-4.6-1.8-4.9-4.2
		c-0.2-1.4,0.2-2.7,1.1-3.9c1.6-2.1,3.1-4.2,4.7-6.3c0.1-0.1,0.1-0.2,0.1-0.3c0-4.8,0-9.6,0-14.4c0-3.4,0-6.7,0-10.1
		C10.5,13.3,10.5,13.2,10.5,13.1z M49.7,36.6c0-6.6,0-13.1,0-19.6c-11.8,0-23.6,0-35.3,0c0,6.5,0,13.1,0,19.6
		C26.2,36.6,37.9,36.6,49.7,36.6z M32,48.4c7.5,0,15,0,22.5,0c0.1,0,0.1,0,0.2,0c0.4,0,0.8-0.3,0.9-0.7c0.1-0.4,0-0.7-0.3-1
		c-1.5-2-3-4-4.5-6c-0.1-0.1-0.2-0.2-0.3-0.2c-12.3,0-24.6,0-36.9,0c0,0-0.1,0-0.1,0c-0.1,0-0.2,0.1-0.2,0.1c-1.5,2-3,4-4.6,6
		c-0.1,0.2-0.2,0.4-0.3,0.7c-0.1,0.6,0.4,1,1,1C17,48.4,24.5,48.4,32,48.4z"/>
	<path class="st0" d="M20.3,24.9c0-1.3,0-2.6,0-3.9c7.8,0,15.7,0,23.5,0c0,1.3,0,2.6,0,3.9C36,24.9,28.1,24.9,20.3,24.9z"/>
	<path class="st0" d="M39.9,28.8c0,1.3,0,2.6,0,3.9c-6.5,0-13.1,0-19.6,0c0-1.3,0-2.6,0-3.9C26.8,28.8,33.4,28.8,39.9,28.8z"/>
</g>
</svg>
