<?xml version="1.0" encoding="utf-8"?>
<!-- Generator: Adobe Illustrator 22.1.0, SVG Export Plug-In . SVG Version: 6.00 Build 0)  -->
<svg version="1.1" id="Layer_1" xmlns="http://www.w3.org/2000/svg" xmlns:xlink="http://www.w3.org/1999/xlink" x="0px" y="0px"
	 viewBox="0 0 65 65" style="enable-background:new 0 0 65 65;" xml:space="preserve">
<style type="text/css">
	.st0{fill:#FFFFFF;}
	.st1{fill:none;stroke:#FFFFFF;stroke-width:2;stroke-miterlimit:10;}
</style>
<g>
	<path class="st0" d="M29.1,25c-2.3,0-4.1-0.1-6-0.3c-3.2-0.3-6.4-0.9-9.5-2c-1.8-0.6-3.5-1.4-5.1-2.4c-1.3-0.8-2.4-1.8-3.2-3.1
		c-0.7-1.1-1.1-2.2-0.9-3.5c0.1-1,0.5-1.9,1.1-2.8c0.9-1.3,2.1-2.2,3.4-3c2.2-1.3,4.5-2.2,7-2.9c1.7-0.5,3.4-0.8,5.1-1.1
		c3-0.4,6-0.6,9.1-0.5c1.4,0.1,2.8,0.1,4.3,0.3c3.4,0.3,6.7,1,9.8,2.2c1.7,0.6,3.4,1.4,5,2.5c1.1,0.8,2.2,1.7,2.9,2.9
		c0.6,1,1,2,1,3.2c-0.1,1.2-0.5,2.2-1.2,3.1c-0.9,1.2-2,2.1-3.3,2.9c-1.9,1.2-4,2-6.1,2.7c-1.8,0.6-3.7,1-5.6,1.3
		c-1.5,0.2-3,0.4-4.6,0.5C31,24.9,29.8,25,29.1,25z"/>
	<path class="st0" d="M37.6,35.4c-0.8,0.1-1.6,0.3-2.5,0.4c-1,0.1-2,0.2-3,0.3c-1.6,0.1-3.3,0.2-4.9,0.1c-1.4-0.1-2.8-0.1-4.2-0.3
		c-3.5-0.4-7-1.1-10.3-2.4c-1.8-0.7-3.5-1.5-5.1-2.7C6.5,30,5.5,29,4.9,27.6c-0.3-0.7-0.5-1.5-0.5-2.3c0-2.6,0-5.2,0-7.7
		c0,0,0,0,0,0c0.2,1.8,1.2,3.1,2.4,4.3c1.3,1.2,2.8,2,4.4,2.8c2.7,1.2,5.5,2,8.4,2.5c1.6,0.3,3.2,0.5,4.8,0.6
		c2.1,0.2,4.1,0.2,6.2,0.1c1.7-0.1,3.4-0.2,5.1-0.4c1.6-0.2,3.2-0.5,4.8-0.9c0,0,0.1,0,0,0c-0.4,0.4-0.8,0.7-1.2,1.1
		c-1.1,1.2-1.7,2.7-1.7,4.4c0,1,0,2.1,0,3.2C37.6,35.3,37.6,35.3,37.6,35.4z"/>
	<path class="st0" d="M4.3,40.1c0.2,1.8,1.2,3.1,2.5,4.3c1.5,1.3,3.1,2.2,4.9,3c2.3,1,4.7,1.7,7.2,2.1c1.5,0.3,3.1,0.5,4.6,0.7
		c1,0.1,0,0,1,0.1c0.1,0-2.7,9.6,11.4,6.9c0.1,0,0.4-1.5,0.5-1.5c0,1.1,1.1,1.2,1.1,2.3c-0.4,0.1-0.7,0.1-1.1,0.2
		c-1.1,0.1-2.2,0.3-3.4,0.4c-2,0.2-4,0.3-6,0.2c-1.3-0.1-2.5-0.1-3.8-0.2c-3.8-0.4-7.4-1.1-10.9-2.5c-1.8-0.7-3.6-1.6-5.1-2.9
		c-1-0.8-1.8-1.7-2.4-2.9c-0.4-0.7-0.6-1.5-0.6-2.3C4.3,45.2,4.3,42.6,4.3,40.1z"/>
	<path class="st0" d="M4.3,28.8c0.2,1.7,1.2,3,2.4,4.2c1.3,1.2,2.9,2.1,4.5,2.9c2.3,1,4.7,1.8,7.1,2.3c1.6,0.3,3.2,0.6,4.8,0.7
		c1.5,0.1,3.1,0.2,4.6,0.3c0.1,0,0.1,0,0.2,0c-0.1,0.1-0.2,0.2-0.3,0.3c-0.9,1.2-2.2,1.4-2.1,2.9c0,1.2,0.2,4.8-1,4.9
		c-1.5,0.1,0.4-0.1,0.4,0c-0.5,0,0.5,0,0,0c-1.3-0.1-2.7-0.3-4-0.4c-2.2-0.3-4.3-0.8-6.3-1.4c-1.9-0.6-3.8-1.4-5.5-2.4
		c-1.3-0.8-2.4-1.7-3.4-2.8c-0.7-0.9-1.2-1.9-1.3-3c0-0.2,0-0.4,0-0.6C4.3,34,4.3,31.4,4.3,28.8z"/>
	<path class="st0" d="M52.9,17.6c0,0.1,0,0.1,0,0.2c0,2.5,0,5,0,7.5c0,0.4-0.1,0.8-0.2,1.3c-0.2-0.1-0.3-0.2-0.4-0.2
		c-1.1-0.7-2.3-1-3.6-1c-1.4,0-2.8,0-4.3,0c-0.1,0-0.1,0-0.2,0c0,0,0,0,0,0c0.4-0.2,0.8-0.3,1.3-0.5c1.7-0.7,3.3-1.6,4.7-2.8
		c1-0.8,1.8-1.8,2.3-3C52.7,18.6,52.8,18.1,52.9,17.6C53,17.6,52.9,17.6,52.9,17.6z"/>
	<g>
		<g>
			<polygon class="st1" points="36.4,38 24.7,40.8 24.5,55.1 36.4,58.7 48.6,55.1 48.3,45.2 37.7,42.4 37.7,38.5 			"/>
			<polyline class="st1" points="24.7,40.8 36.4,45.2 41.6,43.6 			"/>
			<line class="st1" x1="36.4" y1="45.2" x2="36.4" y2="58.7"/>
		</g>
		<g>
			<polygon class="st1" points="49.8,25.1 38.1,27.9 38,42.2 49.8,45.8 62,42.2 61.8,28.7 			"/>
			<polyline class="st1" points="38.1,27.9 49.8,32.3 62,28.7 			"/>
			<line class="st1" x1="49.8" y1="32.3" x2="49.8" y2="45.8"/>
		</g>
	</g>
</g>
</svg>
