<?xml version="1.0" encoding="utf-8"?>
<!-- Generator: Adobe Illustrator 22.1.0, SVG Export Plug-In . SVG Version: 6.00 Build 0)  -->
<svg version="1.1" id="Layer_1" xmlns="http://www.w3.org/2000/svg" xmlns:xlink="http://www.w3.org/1999/xlink" x="0px" y="0px"
	 viewBox="0 0 65 65" style="enable-background:new 0 0 65 65;" xml:space="preserve">
<style type="text/css">
	.st0{fill:#6E7797;}
</style>
<path class="st0" d="M46.6,23.1c1.5,1.4,3,2.7,4.4,4c0.9,0.8,1.8,1.7,2.7,2.6c1.9,1.9,1.9,2.1,0.5,4.3C48.8,42,43.4,50.1,38.1,58.2
	c-1,1.5-1.8,1.7-3.3,0.7c-8.4-5.5-16.7-11-25.1-16.6c-1.2-0.8-1.5-1.5-0.9-2.8c1.7-3.8,3.4-7.5,5.1-11.3c0.7-1.5,1.8-1.7,3.2-0.8
	c0.3,0.2,0.7,0.5,1,0.7c1.3,0.6,1.7,1.5,1.5,3c-0.4,2.6,1.2,5,3.8,5.8c2.6,0.8,5.1-0.3,6.4-2.8c1.2-2.4,0.7-4.9-1.4-6.6
	c-2.1-1.7-4.2-1.8-6.4-0.4c-1,0.6-1.9,0.6-2.8-0.1c-0.6-0.5-1.4-0.9-2-1.4c-0.9-0.7-1.2-1.6-0.5-2.5c1.9-2.6,3.8-5.3,6-7.7
	c2.6-2.8,5.8-3.6,9.4-1.9c1.6,0.7,3.1,1.5,4.6,2.3c0.3,0.2,0.6,0.4,1.1,0.6c-0.7-3.4-0.4-6.4,1.9-8.9c1.6-1.8,3.6-2.6,6-2.8
	c4.5-0.4,8.9,3.1,9.6,7.8C56,16.8,54.1,22.1,46.6,23.1z M35.7,55.3c0.2-0.2,0.3-0.3,0.4-0.4c4.9-7.4,9.7-14.8,14.6-22.2
	c0.4-0.6,0.2-0.9-0.2-1.3c-2.2-1.9-4.2-4-6.5-5.8c-3.1-2.5-2.4-2.8-0.5-5.5c0.5-0.8,1.3-1,2.2-0.8c2.9,0.5,5-0.7,6.1-3.5
	c1.1-2.7-0.2-5.5-3.2-6.9c-2.5-1.2-5.4-0.4-6.8,2c-1.1,1.9-1.2,3.9,0,5.7c0.6,1,0.6,1.8,0,2.7c-0.2,0.3-0.4,0.6-0.6,1
	c-0.9,1.4-1.7,1.5-3.1,0.7c-2-1.2-4-2.4-6-3.6c-1.5-0.9-3.5-0.6-4.7-2.4c0,0.5,0.1,0.9,0.1,1.4c-2.5,0.7-6.5,6-6.8,7.5
	c6.4-1.9,11,0.1,12.6,5.4c1.5,5-1.1,9.7-6,11.2c-2.2,0.7-4.4,0.4-6.4-0.6c-3-1.6-4.4-4.3-5-7.6c-1.2,2.5-2.3,5-3.4,7.5
	c-0.1,0.2,0.3,0.6,0.5,0.8c1.6,1.1,3.2,2.2,4.9,3.2C23.9,47.5,29.8,51.4,35.7,55.3z"/>
</svg>
