<?xml version="1.0" encoding="utf-8"?>
<!-- Generator: Adobe Illustrator 22.1.0, SVG Export Plug-In . SVG Version: 6.00 Build 0)  -->
<svg version="1.1" id="Layer_1" xmlns="http://www.w3.org/2000/svg" xmlns:xlink="http://www.w3.org/1999/xlink" x="0px" y="0px"
	 viewBox="0 0 65 65" style="enable-background:new 0 0 65 65;" xml:space="preserve">
<style type="text/css">
	.st0{fill:none;stroke:#6E7797;stroke-miterlimit:10;}
</style>
<g>
	<path class="st0" d="M32.2,13.5c-3.1,0-5.6-2.5-5.6-5.6s2.5-5.6,5.6-5.6c3.1,0,5.6,2.5,5.6,5.6S35.3,13.5,32.2,13.5z M32.2,6
		c-1,0-1.9,0.8-1.9,1.9s0.8,1.9,1.9,1.9c1,0,1.9-0.8,1.9-1.9S33.2,6,32.2,6z"/>
	<path class="st0" d="M32.2,62.1c-15.5,0-28.1-12.6-28.1-28.1c0-4.7,1.1-9.3,3.4-13.4C8,19.8,9.1,19.5,10,20
		c0.9,0.5,1.2,1.6,0.7,2.5C8.8,26,7.8,30,7.9,34.1c0,13.4,10.9,24.3,24.3,24.3c2.4,0,4.7-0.3,6.9-1c1-0.3,2,0.2,2.3,1.2
		c0.3,1-0.2,2-1.2,2.3c0,0,0,0,0,0C37.6,61.8,34.9,62.1,32.2,62.1z"/>
	<path class="st0" d="M58.1,39.7c-0.1,0-0.2,0-0.3,0c-1-0.2-1.7-1.2-1.5-2.2c0.2-1.1,0.3-2.3,0.3-3.4c0-12.1-8.9-22.3-20.9-24.1
		c-1-0.1-1.8-1-1.7-2.1s1-1.8,2.1-1.7c0,0,0.1,0,0.1,0c13.8,2,24.1,13.8,24.1,27.8c0,1.4-0.1,2.7-0.3,4.1C59.8,39,59,39.7,58.1,39.7
		z"/>
	<path class="st0" d="M32.2,39.7c-1.5,0-2.9-0.6-4-1.6c-2.5-2.5-14.7-19.5-16.1-21.4c-0.6-0.8-0.5-2,0.4-2.6c0.7-0.5,1.6-0.5,2.2,0
		c1.9,1.4,18.7,13.4,21.4,16.1c2.2,2.2,2.2,5.8,0,7.9C35.1,39.1,33.7,39.7,32.2,39.7z M22.1,23.9c3.8,5.1,7.7,10.3,8.8,11.4
		c0.7,0.7,1.9,0.7,2.7,0c0.7-0.7,0.7-1.9,0-2.7C32.3,31.5,27.2,27.7,22.1,23.9z"/>
	<g>
		<polygon class="st0" points="51,41.1 41.9,43.3 41.8,54.4 51,57.2 60.5,54.4 60.3,43.9 		"/>
		<polyline class="st0" points="41.9,43.3 51,46.8 60.5,43.9 		"/>
		<line class="st0" x1="51" y1="46.8" x2="51" y2="57.2"/>
	</g>
</g>
</svg>
