<?xml version="1.0" encoding="utf-8"?>
<!-- Generator: Adobe Illustrator 22.1.0, SVG Export Plug-In . SVG Version: 6.00 Build 0)  -->
<svg version="1.1" id="Layer_1" xmlns="http://www.w3.org/2000/svg" xmlns:xlink="http://www.w3.org/1999/xlink" x="0px" y="0px"
	 viewBox="0 0 65 65" style="enable-background:new 0 0 65 65;" xml:space="preserve">
<style type="text/css">
	.st0{fill:#6E7797;}
	.st1{fill:#FFFAEF;}
	.st2{fill:#F5F1E3;}
	.st3{fill:#C845B5;}
	.st4{fill:#EF59E1;}
	.st5{fill:#22283A;}
	.st6{font-family:'OpenSans-Bold';}
	.st7{font-size:6.1528px;}
</style>
<g>
	<g>
		<g>
			<rect x="7" y="13" class="st0" width="51" height="41.1"/>
			<rect x="32.5" y="13" class="st0" width="25.6" height="41.1"/>
			<path class="st1" d="M52.5,51.7h-3.7c-0.4,0-0.7-0.3-0.7-0.7s0.3-0.7,0.7-0.7h3.7c0.4,0,0.7,0.3,0.7,0.7S52.9,51.7,52.5,51.7z
				 M45.1,51.7h-3.7c-0.4,0-0.7-0.3-0.7-0.7s0.3-0.7,0.7-0.7h3.7c0.4,0,0.7,0.3,0.7,0.7S45.5,51.7,45.1,51.7z M37.8,51.7h-3.7
				c-0.4,0-0.7-0.3-0.7-0.7s0.3-0.7,0.7-0.7h3.7c0.4,0,0.7,0.3,0.7,0.7S38.1,51.7,37.8,51.7z M30.4,51.7h-3.7
				c-0.4,0-0.7-0.3-0.7-0.7s0.3-0.7,0.7-0.7h3.7c0.4,0,0.7,0.3,0.7,0.7S30.8,51.7,30.4,51.7z M23,51.7h-3.7c-0.4,0-0.7-0.3-0.7-0.7
				s0.3-0.7,0.7-0.7H23c0.4,0,0.7,0.3,0.7,0.7S23.4,51.7,23,51.7z M15.6,51.7h-3.7c-0.4,0-0.7-0.3-0.7-0.7s0.3-0.7,0.7-0.7h3.7
				c0.4,0,0.7,0.3,0.7,0.7S16,51.7,15.6,51.7z M55,50.4c-0.4,0-0.7-0.3-0.7-0.7v-3.8c0-0.4,0.3-0.7,0.7-0.7c0.4,0,0.7,0.3,0.7,0.7
				v3.8C55.6,50.1,55.3,50.4,55,50.4z M55,42.8c-0.4,0-0.7-0.3-0.7-0.7v-3.8c0-0.4,0.3-0.7,0.7-0.7c0.4,0,0.7,0.3,0.7,0.7v3.8
				C55.6,42.5,55.3,42.8,55,42.8z M55,35.3c-0.4,0-0.7-0.3-0.7-0.7v-3.8c0-0.4,0.3-0.7,0.7-0.7c0.4,0,0.7,0.3,0.7,0.7v3.8
				C55.6,35,55.3,35.3,55,35.3z M55,27.7c-0.4,0-0.7-0.3-0.7-0.7v-3.8c0-0.4,0.3-0.7,0.7-0.7c0.4,0,0.7,0.3,0.7,0.7V27
				C55.6,27.4,55.3,27.7,55,27.7z M55,20.2c-0.4,0-0.7-0.3-0.7-0.7v-1.7h-0.6c-0.4,0-0.7-0.3-0.7-0.7s0.3-0.7,0.7-0.7H55
				c0.4,0,0.7,0.3,0.7,0.7v2.4C55.6,19.9,55.3,20.2,55,20.2z M49.9,17.8h-3.7c-0.4,0-0.7-0.3-0.7-0.7s0.3-0.7,0.7-0.7h3.7
				c0.4,0,0.7,0.3,0.7,0.7S50.3,17.8,49.9,17.8z M42.5,17.8h-3.7c-0.4,0-0.7-0.3-0.7-0.7s0.3-0.7,0.7-0.7h3.7c0.4,0,0.7,0.3,0.7,0.7
				S42.9,17.8,42.5,17.8z M35.2,17.8h-3.7c-0.4,0-0.7-0.3-0.7-0.7s0.3-0.7,0.7-0.7h3.7c0.4,0,0.7,0.3,0.7,0.7S35.5,17.8,35.2,17.8z
				 M27.8,17.8h-3.7c-0.4,0-0.7-0.3-0.7-0.7s0.3-0.7,0.7-0.7h3.7c0.4,0,0.7,0.3,0.7,0.7S28.2,17.8,27.8,17.8z M20.4,17.8h-3.7
				c-0.4,0-0.7-0.3-0.7-0.7s0.3-0.7,0.7-0.7h3.7c0.4,0,0.7,0.3,0.7,0.7S20.8,17.8,20.4,17.8z M13,17.8H9.3c-0.4,0-0.7-0.3-0.7-0.7
				s0.3-0.7,0.7-0.7H13c0.4,0,0.7,0.3,0.7,0.7S13.4,17.8,13,17.8z"/>
			<rect x="42" y="27.7" class="st0" width="21.7" height="14.7"/>
			<ellipse class="st2" cx="48.7" cy="35" rx="3.4" ry="3.4"/>
		</g>
	</g>
	<g>
		<g>
			<ellipse class="st3" cx="11.3" cy="43.1" rx="11.3" ry="11.2"/>
			<ellipse class="st4" cx="11.3" cy="43.1" rx="9.1" ry="9"/>
		</g>
		<text transform="matrix(1.0091 -1.849992e-02 1.867181e-02 0.9998 4.9492 44.962)" class="st5 st6 st7">XRK</text>
	</g>
</g>
</svg>
