<?xml version="1.0" encoding="utf-8"?>
<!-- Generator: Adobe Illustrator 22.1.0, SVG Export Plug-In . SVG Version: 6.00 Build 0)  -->
<svg version="1.1" id="Layer_1" xmlns="http://www.w3.org/2000/svg" xmlns:xlink="http://www.w3.org/1999/xlink" x="0px" y="0px"
	 viewBox="0 0 65 65" style="enable-background:new 0 0 65 65;" xml:space="preserve">
<style type="text/css">
	.st0{fill:#FFFFFF;}
	.st1{font-family:'Lato-Black';}
	.st2{font-size:36.2033px;}
</style>
<g>
	<g>
		<path class="st0" d="M61.6,32.7c-0.2,1.2-0.3,2.4-0.5,3.7c-0.1,0.6-0.2,1.1-0.4,1.7c-1.6,0-3.1,0-4.7,0c1.8-6.3,1.3-12.4-2-18.1
			c-2.5-4.5-6.2-7.8-10.9-9.8C34.2,6.3,24.3,8.5,17.9,15c1.5,1.5,3,3,4.6,4.6c-3.8,0-7.6,0-11.3,0c0-3.8,0-7.5,0-11.2
			c1.1,1.1,2.2,2.3,3.3,3.4c0.9-0.8,1.6-1.4,2.4-2.1c4.2-3.4,9-5.4,14.4-6c0.4,0,0.8-0.1,1.2-0.1c1.1,0,2.2,0,3.2,0
			c0.4,0,0.8,0.1,1.2,0.1c5.9,0.7,11.1,2.9,15.5,6.9c4.7,4.2,7.7,9.5,8.8,15.8c0.2,1,0.3,2.1,0.4,3.1C61.6,30.6,61.6,31.6,61.6,32.7
			z"/>
		<path class="st0" d="M50.2,47.3c-1.5-1.5-3-3.1-4.6-4.6c3.8,0,7.5,0,11.3,0c0,3.8,0,7.5,0,11.3c-1.2-1.2-2.3-2.3-3.4-3.5
			c-5.8,5.6-12.7,8.4-20.7,8.1c-5.6-0.2-10.6-2.1-15.1-5.4c-9-6.6-13-18-10.2-28.9c1.5,0,3.1,0,4.7,0c-2,7-1.1,13.6,2.9,19.7
			c2.6,3.8,6.1,6.7,10.4,8.4C34.2,55.9,43.8,53.8,50.2,47.3z"/>
	</g>
	<text transform="matrix(1 0 0 1 26.0814 44.5431)" class="st0 st1 st2">?</text>
</g>
</svg>
