<?xml version="1.0" encoding="utf-8"?>
<!-- Generator: Adobe Illustrator 22.1.0, SVG Export Plug-In . SVG Version: 6.00 Build 0)  -->
<svg version="1.1" id="Layer_1" xmlns="http://www.w3.org/2000/svg" xmlns:xlink="http://www.w3.org/1999/xlink" x="0px" y="0px"
	 viewBox="0 0 65 65" style="enable-background:new 0 0 65 65;" xml:space="preserve">
<style type="text/css">
	.st0{fill:#FFFFFF;}
	.st1{fill:none;stroke:#FFFFFF;stroke-width:2;stroke-miterlimit:10;}
</style>
<g>
	<path class="st0" d="M41.9,39.2c0.9-0.1,1.7-0.5,2.2-1.2l7.9-11c0.2-0.3,0.2-0.8-0.1-1.1c-0.3-0.3-0.8-0.3-1.1-0.1l-10.9,8
		c-0.7,0.5-1.2,1.3-1.2,2.2c-0.1,0.9,0.2,1.8,0.9,2.4c0.6,0.6,1.3,0.9,2.1,0.9C41.7,39.2,41.8,39.2,41.9,39.2L41.9,39.2z M40.3,36
		c0-0.4,0.2-0.7,0.5-1l6.6-4.9l-4.8,6.7c-0.2,0.3-0.6,0.5-1,0.5c-0.4,0-0.8-0.1-1-0.4C40.4,36.8,40.3,36.4,40.3,36L40.3,36z
		 M40.3,36"/>
	<path class="st0" d="M60.7,23.5C60.7,23.4,60.7,23.4,60.7,23.5C60.7,23.4,60.6,23.4,60.7,23.5c-0.9-1.6-1.9-3-3-4.2l1.8-1.8
		l1.2,1.2l3.6-3.6l-3.6-3.6L57.1,15l1.2,1.2l-1.8,1.8c-1.2-1.2-2.6-2.2-4-3c0,0,0,0,0,0c0,0,0,0-0.1,0c-2.6-1.5-5.5-2.5-8.6-2.9v-1
		H45c1.2,0,2.1-1,2.1-2.1c0-1.2-0.9-2.1-2.1-2.1h-7.6c-1.2,0-2.1,1-2.1,2.1c0,1.2,0.9,2.1,2.1,2.1h1.3v1c-0.9,0.1-1.8,0.2-2.7,0.5
		c-0.5,0.1-0.7,0.6-0.6,1c0.1,0.5,0.6,0.7,1,0.6c0.8-0.2,1.6-0.3,2.3-0.4l0.9-0.1c0.3,0,0.5,0,0.8-0.1v1.7c0,0.5,0.4,0.9,0.8,0.9
		c0.5,0,0.8-0.4,0.8-0.9v-1.7c3.2,0.1,6.1,1,8.8,2.4L50,17.5c-0.2,0.4-0.1,0.9,0.3,1.2c0.1,0.1,0.3,0.1,0.4,0.1
		c0.3,0,0.6-0.2,0.7-0.4l0.8-1.5c2.6,1.7,4.9,4,6.5,6.6l-1.4,0.8c-0.4,0.2-0.5,0.8-0.3,1.2c0.2,0.3,0.4,0.4,0.7,0.4
		c0.1,0,0.3,0,0.4-0.1l1.4-0.8c1.4,2.7,2.3,5.8,2.4,9.1h-1.7c-0.5,0-0.8,0.4-0.8,0.9c0,0.5,0.4,0.9,0.8,0.9H62
		c-0.1,3.3-1,6.3-2.4,9.1L58.2,44c-0.4-0.2-0.9-0.1-1.1,0.3c-0.2,0.4-0.1,0.9,0.3,1.2l1.4,0.8c-1.7,2.7-3.9,4.9-6.5,6.6l-0.8-1.5
		c-0.2-0.4-0.8-0.6-1.1-0.3c-0.4,0.2-0.5,0.8-0.3,1.2l0.8,1.5c-2.6,1.4-5.6,2.3-8.8,2.4v-1.7c0-0.5-0.4-0.9-0.8-0.9
		c-0.5,0-0.8,0.4-0.8,0.9v1.7c-1.3,0-2.7-0.2-4-0.5c-0.5-0.1-0.9,0.2-1,0.6c-0.1,0.5,0.2,0.9,0.6,1c1.7,0.4,3.4,0.6,5.1,0.6
		c0,0,0.1,0,0.1,0c0,0,0,0,0,0c0,0,0,0,0,0c4,0,7.8-1.1,11.1-3c0,0,0.1,0,0.1,0c0,0,0,0,0,0c3.4-2,6.2-4.9,8.2-8.3c0,0,0,0,0-0.1
		c0,0,0,0,0-0.1c1.9-3.4,3-7.3,3-11.5C63.7,30.8,62.6,26.8,60.7,23.5L60.7,23.5z M60.6,13.8l1.2,1.2l-1.2,1.2L59.4,15L60.6,13.8z
		 M40.3,11.9V9.3h-2.9c-0.2,0-0.4-0.2-0.4-0.4s0.2-0.4,0.4-0.4H45c0.2,0,0.4,0.2,0.4,0.4S45.2,9.3,45,9.3H42v2.6c-0.3,0-0.6,0-0.8,0
		c0,0,0,0-0.1,0c0,0,0,0-0.1,0c-0.1,0-0.3,0-0.4,0C40.5,11.9,40.4,11.9,40.3,11.9L40.3,11.9z M40.3,11.9"/>
	<g>
		<polygon class="st1" points="18.5,20.1 1.9,24.2 1.6,45 18.5,50.2 36,45 35.7,25.3 		"/>
		<polyline class="st1" points="1.9,24.2 18.5,30.6 36,25.3 		"/>
		<line class="st1" x1="18.5" y1="30.6" x2="18.5" y2="50.2"/>
	</g>
</g>
</svg>
