<?xml version="1.0" encoding="utf-8"?>
<!-- Generator: Adobe Illustrator 22.1.0, SVG Export Plug-In . SVG Version: 6.00 Build 0)  -->
<svg version="1.1" id="Layer_1" xmlns="http://www.w3.org/2000/svg" xmlns:xlink="http://www.w3.org/1999/xlink" x="0px" y="0px"
	 viewBox="0 0 65 65" style="enable-background:new 0 0 65 65;" xml:space="preserve">
<style type="text/css">
	.st0{fill:#FFFFFF;}
	.st1{font-family:'Lato-Black';}
	.st2{font-size:12.635px;}
</style>
<g>
	<g>
		<path class="st0" d="M63.3,38.6c-0.2,1.1-0.3,2.2-0.6,3.2c-2.2,9.4-10.4,16.6-20.2,17.7c-7.6,0.8-14.1-1.7-19.5-7
			c-1.1-1.1-2.1-2.5-3-3.8c-0.3-0.3-0.5-0.5-0.9-0.5c-0.9,0-1.7,0-2.6,0c-1.2,0-2-0.8-2-1.9c0-1.1,0.9-1.9,2-1.9c0.4,0,0.8,0,1.3,0
			c-0.4-1.3-0.7-2.5-1.1-3.8c-0.2,0-0.4,0-0.6,0c-2.4,0-4.8,0-7.3,0c-1.3,0-2.2-0.8-2.2-1.9c0-1.1,0.9-1.9,2.2-1.9c2.5,0,5,0,7.5,0
			c0.3-8,3.9-14.2,10.7-19c-0.3,0-0.5,0-0.7,0c-3.3,0-6.6,0-9.8,0c-1.5,0-2.4-1.4-1.8-2.7c0.4-0.8,1-1.1,1.9-1.1c3.7,0,7.3,0,11,0
			c2.1,0,4.1,0,6.2,0c0.3,0,0.6,0,0.8,0.1c0.6,0.4,1.3,0.2,2,0.1c7.6-1,14.1,1.2,19.6,6.4c4.1,3.9,6.5,8.6,7,14.1
			c0,0.1,0.1,0.2,0.1,0.3C63.3,36.3,63.3,37.5,63.3,38.6z M59.3,36.9c0-10.7-8.4-19-19.5-19c-10.9,0-19.5,8.2-19.5,18.8
			c0,10.8,8.4,19.1,19.4,19.2C50.8,55.9,59.3,47.7,59.3,36.9z"/>
		<path class="st0" d="M0.8,30.7c0.5-1.1,1.3-1.5,2.5-1.4c3.1,0,6.1,0,9.2,0c1,0,1.8,0.7,2,1.7c0.1,1-0.5,1.8-1.5,2.1
			c-0.2,0-0.4,0-0.7,0c-3,0-6,0-9,0c-1.2,0-2-0.4-2.5-1.4C0.8,31.4,0.8,31.1,0.8,30.7z"/>
		<path class="st0" d="M0.8,15.6c0.5-1.1,1.3-1.5,2.5-1.4c1.7,0.1,3.4,0,5.1,0c1.3,0,2.2,0.8,2.1,1.9c0,1.1-0.9,1.9-2.1,1.9
			c-1.7,0-3.4,0-5.1,0c-1.2,0-2-0.4-2.5-1.4C0.8,16.2,0.8,15.9,0.8,15.6z"/>
		<path class="st0" d="M12.5,21.7c1.3,0,2.5,0,3.8,0c1.2,0,2.1,0.8,2.1,1.9c0,1.1-0.9,1.9-2.1,1.9c-2.5,0-5,0-7.6,0
			c-1.2,0-2.1-0.8-2.1-1.9c0-1.1,0.9-1.9,2.1-1.9C10,21.7,11.2,21.7,12.5,21.7z"/>
		<path class="st0" d="M6.6,48.3c-0.6,0-1.3,0-1.9,0c-1.1,0-1.9-0.8-2-1.9c0-1.1,0.8-1.9,2-1.9c1.3,0,2.6,0,3.9,0c1.1,0,2,0.9,2,1.9
			c0,1-0.9,1.8-2,1.9C7.9,48.3,7.3,48.3,6.6,48.3z"/>
	</g>
	<text transform="matrix(1.0298 0 0 1 26.4507 41.9707)" class="st0 st1 st2">XRK</text>
</g>
</svg>
