<?xml version="1.0" encoding="utf-8"?>
<!-- Generator: Adobe Illustrator 22.1.0, SVG Export Plug-In . SVG Version: 6.00 Build 0)  -->
<svg version="1.1" id="Layer_1" xmlns="http://www.w3.org/2000/svg" xmlns:xlink="http://www.w3.org/1999/xlink" x="0px" y="0px"
	 viewBox="0 0 65 65" style="enable-background:new 0 0 65 65;" xml:space="preserve">
<style type="text/css">
	.st0{fill:none;stroke:#FFFFFF;stroke-width:1.7;stroke-miterlimit:10;}
</style>
<g>
	<path class="st0" d="M31.9,12.6c-3.2,0-5.8-2.6-5.8-5.9s2.6-5.9,5.8-5.9s5.8,2.6,5.8,5.9S35.1,12.6,31.9,12.6z M31.9,4.8
		c-1.1,0-1.9,0.9-1.9,2s0.9,2,1.9,2c1.1,0,1.9-0.9,1.9-2S32.9,4.8,31.9,4.8z"/>
	<path class="st0" d="M31.9,63.3c-16.1,0-29.1-13.1-29.1-29.3c0-4.9,1.2-9.7,3.5-13.9c0.5-0.9,1.7-1.3,2.7-0.7
		c0.9,0.5,1.2,1.7,0.8,2.6c-2,3.7-3,7.9-3,12.1c0,14,11.3,25.4,25.2,25.4c2.4,0,4.9-0.3,7.2-1.1c1-0.3,2.1,0.3,2.4,1.3
		c0.3,1-0.3,2.1-1.3,2.4c0,0,0,0,0,0C37.5,62.9,34.7,63.4,31.9,63.3z"/>
	<path class="st0" d="M58.7,39.9c-0.1,0-0.2,0-0.4,0c-1.1-0.2-1.7-1.2-1.6-2.3c0.2-1.2,0.3-2.4,0.3-3.5c0-12.6-9.2-23.3-21.7-25.1
		c-1.1-0.1-1.8-1.1-1.7-2.1c0.1-1.1,1.1-1.9,2.1-1.7c0,0,0.1,0,0.1,0c14.3,2.1,25,14.4,25,28.9c0,1.4-0.1,2.9-0.3,4.3
		C60.5,39.2,59.7,39.9,58.7,39.9z"/>
	<path class="st0" d="M31.9,39.9c-1.5,0-3-0.6-4.1-1.7c-2.6-2.6-15.2-20.3-16.7-22.3c-0.6-0.9-0.5-2.1,0.4-2.7
		c0.7-0.5,1.6-0.5,2.3,0c2,1.4,19.4,14,22.2,16.8c2.3,2.3,2.3,6,0,8.3C34.9,39.3,33.4,39.9,31.9,39.9z M21.4,23.5
		c3.9,5.3,7.9,10.7,9.1,11.9c0.8,0.8,2,0.8,2.7,0c0.8-0.8,0.8-2,0-2.8C32,31.4,26.7,27.4,21.4,23.5z"/>
	<g>
		<polygon class="st0" points="51.3,41.4 41.9,43.7 41.8,55.3 51.3,58.2 61.2,55.3 61,44.3 		"/>
		<polyline class="st0" points="41.9,43.7 51.3,47.3 61.2,44.3 		"/>
		<line class="st0" x1="51.3" y1="47.3" x2="51.3" y2="58.2"/>
	</g>
</g>
</svg>
