<svg id="Layer_1" data-name="Layer 1" xmlns="http://www.w3.org/2000/svg" viewBox="0 0 268 25"><defs><style>.cls-1{fill:#fff;}.cls-2{fill:#231f20;}.cls-3{fill:#212838;}</style></defs><title>All Logo</title><path class="cls-1" d="M205.76,2.37v.41h-1.16V6h-.48V2.78H203V2.37Z"/><path class="cls-1" d="M208.1,4.78l.05.13.05-.13.06-.13,1.21-2.2a.14.14,0,0,1,.07-.07H210V6h-.42V3.32s0-.07,0-.11,0-.08,0-.12l-1.23,2.24a.19.19,0,0,1-.17.11h-.07a.19.19,0,0,1-.18-.11l-1.25-2.25s0,.09,0,.13,0,.08,0,.11V6h-.42V2.37h.46a.14.14,0,0,1,.07.07L208,4.66Z"/><path class="cls-1" d="M30.28,21.48V6h6.89a3.28,3.28,0,0,1,2.41,1,3.33,3.33,0,0,1,1,2.42v.93a3.68,3.68,0,0,1-.78,2.22,3.07,3.07,0,0,1-2.64,1.06h1.71a1.65,1.65,0,0,1,1.21.51,1.67,1.67,0,0,1,.51,1.23v6.08H37.17V16.33a1.65,1.65,0,0,0-.51-1.21,1.67,1.67,0,0,0-1.23-.51H33.73v6.87Zm3.44-8.6h1.71a1.67,1.67,0,0,0,1.23-.51,1.65,1.65,0,0,0,.51-1.21V9.46a1.73,1.73,0,0,0-1.73-1.73H33.73Z"/><path class="cls-1" d="M44,21.48V6h8.6V7.73H47.49v5.16h3.44v1.73H47.49v5.16h5.16v1.71Z"/><path class="cls-1" d="M66.38,18q-.21,3.44-3.42,3.44H59.51A3.47,3.47,0,0,1,56.07,18V9.46a3.34,3.34,0,0,1,1-2.42,3.29,3.29,0,0,1,2.44-1H63q3.24,0,3.42,3.44H64.67Q64.46,7.73,63,7.73H61.22A1.65,1.65,0,0,0,60,8.23a1.67,1.67,0,0,0-.51,1.23V18A1.68,1.68,0,0,0,60,19.26a1.63,1.63,0,0,0,1.21.52H63q1.53,0,1.71-1.73Z"/><path class="cls-1" d="M73.27,6h3.44a3.28,3.28,0,0,1,2.41,1,3.33,3.33,0,0,1,1,2.42V18a3.33,3.33,0,0,1-1,2.42,3.28,3.28,0,0,1-2.41,1H73.27A3.47,3.47,0,0,1,69.82,18V9.46A3.47,3.47,0,0,1,73.27,6Zm0,3.44V18a1.68,1.68,0,0,0,.51,1.22,1.63,1.63,0,0,0,1.21.52,1.66,1.66,0,0,0,1.23-.52A1.68,1.68,0,0,0,76.71,18V9.46A1.73,1.73,0,0,0,75,7.73a1.65,1.65,0,0,0-1.21.51A1.67,1.67,0,0,0,73.27,9.46Z"/><path class="cls-1" d="M83.58,21.48V6h6.89a3.28,3.28,0,0,1,2.41,1,3.33,3.33,0,0,1,1,2.42v.93a3.68,3.68,0,0,1-.78,2.22,3.07,3.07,0,0,1-2.64,1.06h1.71a1.65,1.65,0,0,1,1.21.51,1.67,1.67,0,0,1,.51,1.23v6.08H90.47V16.33A1.65,1.65,0,0,0,90,15.12a1.67,1.67,0,0,0-1.23-.51H87v6.87ZM87,12.88h1.71A1.67,1.67,0,0,0,90,12.38a1.65,1.65,0,0,0,.51-1.21V9.46a1.73,1.73,0,0,0-1.73-1.73H87Z"/><path class="cls-1" d="M97.34,21.48V6h6.89a3.28,3.28,0,0,1,2.41,1,3.33,3.33,0,0,1,1,2.42V18a3.33,3.33,0,0,1-1,2.42,3.28,3.28,0,0,1-2.41,1Zm3.44-1.71h1.71a1.66,1.66,0,0,0,1.23-.52,1.68,1.68,0,0,0,.51-1.22V9.46a1.73,1.73,0,0,0-1.73-1.73h-1.71Z"/><path class="cls-1" d="M119.7,9.46H118q-.23-1.73-1.63-1.73a1.9,1.9,0,0,0-1.36.43,1.72,1.72,0,0,0-.45,1.3,1.85,1.85,0,0,0,.5,1.22l3.65,4.08a3.6,3.6,0,0,1,1,2.43V18a3.47,3.47,0,0,1-3.44,3.44h-1.71a3.53,3.53,0,0,1-2.58-.86,3.49,3.49,0,0,1-.87-2.59h1.73v.29a1.22,1.22,0,0,0,.54,1.07,2,2,0,0,0,1.18.37,1.69,1.69,0,0,0,1.31-.44,1.86,1.86,0,0,0,.4-1.29,1.8,1.8,0,0,0-.49-1.22l-3.65-4.08a3.55,3.55,0,0,1-1-2.43V9.46a3.33,3.33,0,0,1,1-2.42,3.3,3.3,0,0,1,2.43-1h1.71Q119.49,6,119.7,9.46Z"/><path class="cls-1" d="M126.26,21.48V6h3.44v6.31L135.28,6h3l-6.89,7.73,6.89,7.73h-3.44l-5.16-6v6Z"/><path class="cls-1" d="M141.73,21.48V6h8.6V7.73h-5.16v5.16h3.44v1.73h-3.44v5.16h5.16v1.71Z"/><path class="cls-1" d="M153.76,21.48V6h8.6V7.73H157.2v5.16h3.44v1.73H157.2v5.16h5.16v1.71Z"/><path class="cls-1" d="M165.78,21.48V6h6.89a3.28,3.28,0,0,1,2.41,1,3.33,3.33,0,0,1,1,2.42v1.71a3.33,3.33,0,0,1-1,2.42,3.28,3.28,0,0,1-2.41,1h-3.44v6.87Zm3.44-8.6h1.71a1.67,1.67,0,0,0,1.23-.51,1.65,1.65,0,0,0,.51-1.21V9.46a1.73,1.73,0,0,0-1.73-1.73h-1.71Z"/><path class="cls-1" d="M179.54,21.48V6h8.6V7.73H183v5.16h3.44v1.73H183v5.16h5.16v1.71Z"/><path class="cls-1" d="M191.56,21.48V6h6.89a3.28,3.28,0,0,1,2.41,1,3.33,3.33,0,0,1,1,2.42v.93a3.68,3.68,0,0,1-.78,2.22,3.07,3.07,0,0,1-2.64,1.06h1.71a1.65,1.65,0,0,1,1.21.51,1.67,1.67,0,0,1,.51,1.23v6.08h-3.42V16.33a1.65,1.65,0,0,0-.51-1.21,1.67,1.67,0,0,0-1.23-.51H195v6.87Zm3.44-8.6h1.71a1.67,1.67,0,0,0,1.23-.51,1.65,1.65,0,0,0,.51-1.21V9.46a1.73,1.73,0,0,0-1.73-1.73H195Z"/><g id="Files"><g id="File_3" data-name="File 3"><rect class="cls-1" x="17.99" y="3.62" width="5.67" height="18.87"/><path class="cls-2" d="M23.69,22.53H18V3.59h5.73ZM18,22.46h5.6V3.66H18Z"/><circle class="cls-3" cx="20.84" cy="18.43" r="1.75"/><rect class="cls-3" x="18.92" y="4.74" width="3.84" height="7.3" rx="1.2" ry="1.2"/><circle class="cls-1" cx="20.85" cy="18.42" r="1.31"/><path class="cls-1" d="M19.94,6.29h1.81a.39.39,0,1,0,0-.78H19.94a.39.39,0,1,0,0,.78Z"/><path class="cls-1" d="M21.75,6.72H19.94a.39.39,0,1,0,0,.78h1.81a.39.39,0,1,0,0-.78Z"/><path class="cls-1" d="M21.75,7.93H19.94a.39.39,0,1,0,0,.78h1.81a.39.39,0,1,0,0-.78Z"/></g><g id="File_2" data-name="File 2"><rect class="cls-1" x="11.57" y="3.73" width="5.67" height="18.87"/><path class="cls-2" d="M17.27,22.63H11.54V3.69h5.73Zm-5.67-.07h5.6V3.76h-5.6Z"/><circle class="cls-3" cx="14.42" cy="18.53" r="1.75"/><rect class="cls-3" x="12.51" y="4.84" width="3.84" height="7.3" rx="1.2" ry="1.2"/><circle class="cls-1" cx="14.43" cy="18.52" r="1.31"/><path class="cls-1" d="M13.52,6.39h1.81a.39.39,0,0,0,0-.78H13.52a.39.39,0,1,0,0,.78Z"/><path class="cls-1" d="M15.33,6.82H13.52a.39.39,0,1,0,0,.78h1.81a.39.39,0,0,0,0-.78Z"/><rect class="cls-1" x="13.13" y="8.03" width="2.59" height="0.78" rx="0.39" ry="0.39"/></g><g id="Tilted_File_1" data-name="Tilted File 1"><rect class="cls-1" x="2.68" y="3.29" width="5.67" height="18.87" transform="translate(3.96 -1.05) rotate(17)"/><path class="cls-2" d="M5.48,22.62h0L0,20.94v0L5.54,2.84h0L11,4.51v0ZM.08,20.9l5.36,1.64,5.5-18L5.58,2.92Z"/><circle class="cls-3" cx="3.95" cy="17.86" r="1.75" transform="translate(-14.29 16.42) rotate(-73)"/><circle class="cls-1" cx="3.96" cy="17.86" r="1.31" transform="translate(-14.28 16.43) rotate(-73)"/><rect class="cls-3" x="3.25" y="6.34" width="7.3" height="3.84" rx="1.2" ry="1.2" transform="translate(-3.02 12.44) rotate(-73)"/><path class="cls-1" d="M8.6,5.78,6.87,5.25A.39.39,0,1,0,6.64,6l1.73.53a.39.39,0,0,0,.23-.74Z"/><path class="cls-1" d="M8.25,6.94,6.52,6.41a.39.39,0,1,0-.23.74L8,7.68a.39.39,0,0,0,.23-.74Z"/><path class="cls-1" d="M7.9,8.09,6.16,7.56a.39.39,0,0,0-.23.74l1.73.53a.39.39,0,0,0,.23-.74Z"/></g></g><path class="cls-1" d="M231.22,18.92a2.8,2.8,0,0,1-1.05,2.31,4.58,4.58,0,0,1-2.94.84,6.89,6.89,0,0,1-3.07-.65V19.29A12.64,12.64,0,0,0,226,20a5.51,5.51,0,0,0,1.39.2,2,2,0,0,0,1.16-.29A1,1,0,0,0,229,19a1,1,0,0,0-.18-.57,2,2,0,0,0-.52-.48,13.64,13.64,0,0,0-1.4-.73,6.65,6.65,0,0,1-1.49-.9,3.35,3.35,0,0,1-.79-1,2.85,2.85,0,0,1-.3-1.33,2.8,2.8,0,0,1,1-2.26,4,4,0,0,1,2.69-.82,6.34,6.34,0,0,1,1.61.2,11.2,11.2,0,0,1,1.6.56l-.74,1.78A10.88,10.88,0,0,0,229,13a4.61,4.61,0,0,0-1.11-.14,1.48,1.48,0,0,0-1,.3,1,1,0,0,0-.35.79,1,1,0,0,0,.14.53,1.55,1.55,0,0,0,.45.44,13.79,13.79,0,0,0,1.45.76,5.78,5.78,0,0,1,2.08,1.46A2.84,2.84,0,0,1,231.22,18.92Z"/><path class="cls-1" d="M237.36,21.93h-2.29V13h-2.94V11.11h8.17V13h-2.94Z"/><path class="cls-1" d="M248.59,21.93l-.79-2.58h-3.95l-.79,2.58H240.6l3.82-10.87h2.81l3.83,10.87Zm-1.33-4.5q-1.09-3.5-1.23-4c-.09-.31-.16-.55-.2-.73q-.24.95-1.4,4.69Z"/><path class="cls-1" d="M256.6,21.93h-2.29V13h-2.94V11.11h8.17V13H256.6Z"/><path class="cls-1" d="M267.6,18.92a2.8,2.8,0,0,1-1.05,2.31,4.58,4.58,0,0,1-2.94.84,6.89,6.89,0,0,1-3.07-.65V19.29a12.64,12.64,0,0,0,1.85.69,5.51,5.51,0,0,0,1.39.2,2,2,0,0,0,1.16-.29,1,1,0,0,0,.4-.86,1,1,0,0,0-.18-.57,2,2,0,0,0-.52-.48,13.64,13.64,0,0,0-1.4-.73,6.65,6.65,0,0,1-1.49-.9,3.35,3.35,0,0,1-.79-1,2.85,2.85,0,0,1-.3-1.33,2.8,2.8,0,0,1,1-2.26,4,4,0,0,1,2.69-.82,6.34,6.34,0,0,1,1.61.2,11.2,11.2,0,0,1,1.6.56l-.74,1.78a10.88,10.88,0,0,0-1.43-.5,4.61,4.61,0,0,0-1.11-.14,1.48,1.48,0,0,0-1,.3,1,1,0,0,0-.35.79,1,1,0,0,0,.14.53,1.55,1.55,0,0,0,.45.44,13.79,13.79,0,0,0,1.45.76A5.78,5.78,0,0,1,267,17.14,2.84,2.84,0,0,1,267.6,18.92Z"/></svg>