<?xml version="1.0" encoding="utf-8"?>
<!-- Generator: Adobe Illustrator 22.1.0, SVG Export Plug-In . SVG Version: 6.00 Build 0)  -->
<svg version="1.1" id="Layer_1" xmlns="http://www.w3.org/2000/svg" xmlns:xlink="http://www.w3.org/1999/xlink" x="0px" y="0px"
	 viewBox="0 0 65 65" style="enable-background:new 0 0 65 65;" xml:space="preserve">
<style type="text/css">
	.st0{fill:none;stroke:#6E7797;stroke-width:1.7;stroke-miterlimit:10;}
</style>
<g>
	<g>
		<g>
			<path class="st0" d="M5,32C5,16.6,17.5,4,33,4c9.2,0,17.7,4.5,23,12H45v2h14V5h-2v9C47.1,0.8,28.3-1.9,15,8
				C4.7,15.7,0.5,29.1,4.5,41.4C4.6,41.8,5,42,5.4,42c0.1,0,0.2,0,0.3-0.1c0.5-0.2,0.8-0.7,0.6-1.3C5.5,37.9,5,35,5,32L5,32z"/>
			<path class="st0" d="M61.5,22.7c-0.2-0.5-0.8-0.8-1.3-0.6c-0.5,0.2-0.8,0.7-0.6,1.2c4.8,14.7-3.2,30.5-17.9,35.3
				C30,62.5,17.1,58.2,10,48h11v-2H7v13h2v-9c9.9,13.3,28.7,15.9,42,6C61.3,48.3,65.5,34.9,61.5,22.7L61.5,22.7z"/>
		</g>
	</g>
	<g>
		<polygon class="st0" points="32.8,22.1 22,24.8 21.9,38.5 32.8,41.9 44.1,38.5 44,25.5 		"/>
		<polyline class="st0" points="22,24.8 32.8,29 44.1,25.5 		"/>
		<line class="st0" x1="32.8" y1="29" x2="32.8" y2="41.9"/>
	</g>
</g>
</svg>
