<?xml version="1.0" encoding="utf-8"?>
<!-- Generator: Adobe Illustrator 22.1.0, SVG Export Plug-In . SVG Version: 6.00 Build 0)  -->
<svg version="1.1" id="Layer_1" xmlns="http://www.w3.org/2000/svg" xmlns:xlink="http://www.w3.org/1999/xlink" x="0px" y="0px"
	 viewBox="0 0 65 65" style="enable-background:new 0 0 65 65;" xml:space="preserve">
<style type="text/css">
	.st0{fill:#6E7797;}
</style>
<g>
	<g>
		<path class="st0" d="M32.4,49.9c-4.5,0-9-0.1-13.5,0c-2,0-2.6-0.7-2.8-2.6c-0.3-3.3,0.8-5.8,3.9-7.4c1.1-0.6,2.2-1.4,3.3-2.1
			c3-1.8,3.3-3.8,2.6-7c-0.7-3.3-0.8-6.8-0.3-10.1c0.5-3.3,4.3-4.9,8.2-4.4c3.5,0.4,6,2.8,6,6.1c0,3.1-0.4,6.2-1,9.2
			c-0.6,3,0,4.6,2.7,6.2c1.2,0.7,2.2,1.6,3.5,2.2c3.1,1.6,4.1,4,3.8,7.2c-0.1,2-0.7,2.8-2.9,2.8C41.4,49.9,36.9,49.9,32.4,49.9z
			 M32.4,47.7c3.7,0,7.4,0.1,11.1,0c1,0,2-0.6,3-0.9c-0.5-1.3-0.5-3-1.4-3.9c-1.4-1.4-3.4-2.4-5.2-3.5c-3.2-1.8-4.8-5.7-3.2-8.9
			c1.4-2.7,1.1-5.3,0.8-8c-0.3-2.6-2-4-4.8-4.1c-3.3-0.1-5.4,1.7-5.3,5c0.2,3.9,0.7,7.7,1.1,11.6c0.2,1.9-0.7,3-2.4,3.9
			c-2.2,1.2-4.4,2.4-6.3,4.1c-0.9,0.8-1.1,2.5-1.1,3.7c0,0.3,1.8,1,2.7,1C25.1,47.8,28.8,47.7,32.4,47.7z"/>
		<path class="st0" d="M7.3,50.1c-0.7,0-1.5,0.1-2.2,0c-1.4-0.2-3.5,0.8-4-1.2c-0.5-2.1-0.7-4.5,1.4-6.1c1.3-1,2.7-2.1,4.2-2.8
			c2.4-1.1,2.1-2.7,1.8-4.7c-0.4-2.5-0.8-5.1-0.5-7.6c0.3-2.9,3-4.7,6.2-4.5c3.2,0.1,5.7,2,5.8,5c0.1,3.1-0.5,6.2-1,9.2
			c-0.1,0.4-0.9,1-1.1,0.9c-0.5-0.1-1.2-0.7-1.2-1.1c-0.1-0.9,0-1.9,0.1-2.8c0.2-1.9,0.7-3.8,0.6-5.7c0-2-1.5-2.9-3.5-2.9
			c-2,0-3.4,1-3.4,2.9c0,1.9,0.2,3.9,0.7,5.7c0.9,3.2,0,5.8-3,7.6c-1.2,0.7-2.4,1.4-3.4,2.3C4.2,45,4,45.9,3.6,46.7
			c0.7,0.3,1.5,0.7,2.2,0.8c2,0.1,4.1,0,6.1,0.1c0.6,0,1.2,0.8,1.8,1.2c-0.6,0.4-1.2,1.1-1.8,1.2C10.4,50.2,8.8,50.1,7.3,50.1
			C7.3,50.1,7.3,50.1,7.3,50.1z"/>
		<path class="st0" d="M61.9,47.6c-0.9-1.5-1.3-2.6-2.1-3.3c-0.8-0.8-2-1.4-3-2c-3.7-2.3-4.2-4.4-2.9-8.6c0.6-1.8,0.3-3.9,0.1-5.8
			c-0.2-1.7-1.8-2.1-3.4-2.1c-1.6,0-3.1,0.7-3.2,2.3c-0.1,2,0.2,4,0.4,6c0.1,0.7,0.5,1.4,0.3,2c-0.1,0.7-0.7,1.4-1.1,2.1
			c-0.5-0.6-1.3-1.2-1.5-1.9c-0.5-2.4-0.9-4.9-1-7.4c0-3.6,2.6-5.9,6.3-5.8c3.6,0.1,6,2.3,6,5.8c0,2.2-0.5,4.4-0.8,6.7
			c-0.2,1.8-0.4,3.4,1.8,4.3c1.4,0.6,2.6,1.6,3.9,2.5c1.9,1.3,2.9,4.6,1.9,6.6c-0.3,0.5-1.1,1-1.7,1c-3,0.1-6.1,0.1-9.1,0
			c-0.6,0-1.2-0.8-1.8-1.2c0.6-0.4,1.2-1.2,1.8-1.2C55.6,47.5,58.3,47.6,61.9,47.6z"/>
	</g>
</g>
</svg>
