<?xml version="1.0" encoding="utf-8"?>
<!-- Generator: Adobe Illustrator 22.1.0, SVG Export Plug-In . SVG Version: 6.00 Build 0)  -->
<svg version="1.1" id="Layer_1" xmlns="http://www.w3.org/2000/svg" xmlns:xlink="http://www.w3.org/1999/xlink" x="0px" y="0px"
	 viewBox="0 0 65 65" style="enable-background:new 0 0 65 65;" xml:space="preserve">
<style type="text/css">
	.st0{fill:none;stroke:#6E7797;stroke-miterlimit:10;}
	.st1{fill:#6E7797;}
	.st2{fill:#231F20;}
	.st3{fill:#FFFFFF;}
</style>
<g>
	<circle class="st0" cx="32.6" cy="32.2" r="29.1"/>
	<g id="Files_1_">
		<g id="File_3_2_">
			<g>
				<rect x="42.2" y="17.6" class="st1" width="9.1" height="30.2"/>
				<path class="st2" d="M51.3,47.9h-9.2V17.6h9.2V47.9z M42.2,47.8h9V17.7h-9V47.8z"/>
			</g>
			<circle class="st3" cx="46.7" cy="41.3" r="2.8"/>
			<path class="st3" d="M47.9,19.4h-2.3c-1.1,0-1.9,0.9-1.9,1.9v7.8c0,1.1,0.9,1.9,1.9,1.9h2.3c1.1,0,1.9-0.9,1.9-1.9v-7.8
				C49.8,20.3,49,19.4,47.9,19.4z"/>
			<circle class="st1" cx="46.7" cy="41.3" r="2.1"/>
			<g>
				<path class="st1" d="M45.3,21.9h2.9c0.3,0,0.6-0.3,0.6-0.6c0-0.3-0.3-0.6-0.6-0.6h-2.9c-0.3,0-0.6,0.3-0.6,0.6
					C44.7,21.6,44.9,21.9,45.3,21.9z"/>
				<path class="st1" d="M48.2,22.6h-2.9c-0.3,0-0.6,0.3-0.6,0.6s0.3,0.6,0.6,0.6h2.9c0.3,0,0.6-0.3,0.6-0.6S48.5,22.6,48.2,22.6z"
					/>
				<path class="st1" d="M48.2,24.5h-2.9c-0.3,0-0.6,0.3-0.6,0.6s0.3,0.6,0.6,0.6h2.9c0.3,0,0.6-0.3,0.6-0.6S48.5,24.5,48.2,24.5z"
					/>
			</g>
		</g>
		<g id="File_2_2_">
			<g>
				<rect x="31.9" y="17.8" class="st1" width="9.1" height="30.2"/>
				<path class="st2" d="M41,48.1h-9.2V17.7H41V48.1z M31.9,48h9V17.8h-9V48z"/>
			</g>
			<circle class="st3" cx="36.4" cy="41.5" r="2.8"/>
			<path class="st3" d="M37.6,19.6h-2.3c-1.1,0-1.9,0.9-1.9,1.9v7.8c0,1.1,0.9,1.9,1.9,1.9h2.3c1.1,0,1.9-0.9,1.9-1.9v-7.8
				C39.5,20.4,38.7,19.6,37.6,19.6z"/>
			<circle class="st1" cx="36.5" cy="41.5" r="2.1"/>
			<g>
				<path class="st1" d="M35,22h2.9c0.3,0,0.6-0.3,0.6-0.6s-0.3-0.6-0.6-0.6H35c-0.3,0-0.6,0.3-0.6,0.6S34.7,22,35,22z"/>
				<path class="st1" d="M37.9,22.7H35c-0.3,0-0.6,0.3-0.6,0.6S34.7,24,35,24h2.9c0.3,0,0.6-0.3,0.6-0.6S38.2,22.7,37.9,22.7z"/>
				<path class="st1" d="M37.9,24.7H35c-0.3,0-0.6,0.3-0.6,0.6v0c0,0.3,0.3,0.6,0.6,0.6h2.9c0.3,0,0.6-0.3,0.6-0.6v0
					C38.5,25,38.2,24.7,37.9,24.7z"/>
			</g>
		</g>
		<g id="Tilted_File_1_2_">
			<g>
				
					<rect x="17.6" y="17.1" transform="matrix(0.9563 0.2924 -0.2924 0.9563 10.3832 -5.073)" class="st1" width="9.1" height="30.2"/>
				<path class="st2" d="M22.1,48.1L22.1,48.1l-8.8-2.7l0-0.1l8.9-29l0.1,0L31,19l0,0.1L22.1,48.1z M13.5,45.3l8.6,2.6l8.8-28.8
					l-8.6-2.6L13.5,45.3z"/>
			</g>
			<circle class="st3" cx="19.7" cy="40.4" r="2.8"/>
			<circle class="st1" cx="19.7" cy="40.4" r="2.1"/>
			<path class="st3" d="M27.2,19.8L25,19.1c-1-0.3-2.1,0.3-2.4,1.3l-2.3,7.5c-0.3,1,0.3,2.1,1.3,2.4l2.2,0.7c1,0.3,2.1-0.3,2.4-1.3
				l2.3-7.5C28.8,21.2,28.2,20.1,27.2,19.8z"/>
			<g>
				<path class="st1" d="M27.1,21.1l-2.8-0.8c-0.3-0.1-0.7,0.1-0.8,0.4c-0.1,0.3,0.1,0.7,0.4,0.8l2.8,0.8c0.3,0.1,0.7-0.1,0.8-0.4
					C27.6,21.5,27.4,21.2,27.1,21.1z"/>
				<path class="st1" d="M26.6,22.9l-2.8-0.8c-0.3-0.1-0.7,0.1-0.8,0.4c-0.1,0.3,0.1,0.7,0.4,0.8l2.8,0.8c0.3,0.1,0.7-0.1,0.8-0.4
					C27.1,23.4,26.9,23,26.6,22.9z"/>
				<path class="st1" d="M26,24.8l-2.8-0.8c-0.3-0.1-0.7,0.1-0.8,0.4c-0.1,0.3,0.1,0.7,0.4,0.8l2.8,0.8c0.3,0.1,0.7-0.1,0.8-0.4
					C26.5,25.2,26.3,24.9,26,24.8z"/>
			</g>
		</g>
	</g>
</g>
</svg>
